<?xml version="1.0" encoding="UTF-8"?><svg id="Layer_1" xmlns="http://www.w3.org/2000/svg" viewBox="0 0 300 100"><g><path d="m115.52,71.6h-.84l-3.13,8.62h.82l.92-2.6h3.61l.92,2.6h.82l-3.12-8.62h0Zm-1.99,5.31l1.53-4.3h.06l1.53,4.3h-3.12,0Z"/><path d="m129.25,73.59c-.31-.65-.77-1.13-1.34-1.47s-1.28-.52-2.1-.52h-2.67v8.62h2.5c.86,0,1.61-.17,2.22-.52s1.07-.84,1.4-1.49.48-1.43.48-2.33-.17-1.66-.48-2.29m-.67,4.24c-.25.53-.63.96-1.13,1.24s-1.11.44-1.85.44h-1.7v-7.21h1.83c.71,0,1.28.15,1.76.42s.84.71,1.07,1.24c.25.53.36,1.17.36,1.91.02.75-.1,1.4-.34,1.95"/><path d="m135.67,74.75c-.15-.29-.32-.5-.55-.67-.23-.17-.48-.27-.75-.34-.27-.06-.53-.1-.77-.1-.32,0-.65.04-.97.13s-.61.25-.86.46c-.25.21-.46.5-.61.84l.71.25c.12-.29.32-.52.61-.73s.67-.31,1.15-.31.86.13,1.13.38.4.61.4,1.05v.15c0,.17-.08.29-.19.36-.13.08-.32.13-.57.15-.25.02-.55.08-.92.12-.36.04-.69.12-.99.19s-.57.19-.78.32c-.23.13-.4.32-.52.53-.12.23-.19.5-.19.8,0,.42.1.77.29,1.05.19.29.44.52.77.67.32.15.67.23,1.07.23.36,0,.67-.06.94-.17.27-.12.5-.27.67-.44.17-.17.31-.36.4-.55h.04v1.03h.75v-4.4c-.02-.38-.08-.75-.23-1.03m-.53,2.98c0,.36-.08.67-.23.97-.15.29-.38.53-.67.71-.29.17-.63.27-1.03.27s-.78-.1-1.05-.32c-.29-.21-.42-.52-.42-.92,0-.27.08-.48.21-.65s.34-.31.59-.4c.25-.1.57-.17.94-.21.13-.02.29-.04.46-.06.17-.02.34-.06.52-.08.17-.04.32-.08.46-.12.13-.04.23-.1.29-.15v.96h-.06Z"/><path d="m142.03,75.17l-.69.19c-.06-.19-.15-.36-.29-.53-.13-.17-.29-.29-.48-.38s-.44-.13-.73-.13c-.44,0-.8.1-1.07.31-.29.21-.42.48-.42.8,0,.29.1.5.29.67.19.17.5.31.9.4l.97.23c.53.13.96.34,1.22.63s.4.65.4,1.07c0,.36-.1.69-.31.97s-.48.5-.84.67-.78.25-1.24.25c-.63,0-1.15-.13-1.57-.42-.4-.29-.67-.69-.78-1.24l.73-.17c.1.38.27.67.55.88.27.19.63.29,1.07.29.5,0,.9-.12,1.18-.34.29-.23.44-.5.44-.84,0-.27-.1-.48-.27-.67-.17-.17-.44-.31-.78-.4l-1.05-.25c-.55-.13-.97-.34-1.24-.65s-.4-.65-.4-1.09c0-.36.1-.67.29-.94.19-.27.46-.48.8-.63s.73-.23,1.17-.23c.59,0,1.07.13,1.42.4.34.27.57.69.73,1.17"/><polygon points="148.57 80.22 147.61 80.22 145.09 77.01 144.34 77.71 144.34 80.22 143.6 80.22 143.6 71.6 144.34 71.6 144.34 76.8 144.44 76.8 147.46 73.76 148.41 73.76 145.64 76.53 148.57 80.22"/><path d="m159.69,74.29h-.78c-.06-.29-.17-.57-.32-.82s-.34-.48-.57-.67-.5-.34-.78-.44-.61-.15-.96-.15c-.53,0-1.03.13-1.49.42-.46.29-.8.71-1.07,1.24-.27.55-.4,1.22-.4,2.01s.13,1.47.4,2.02c.27.55.63.96,1.07,1.24s.94.42,1.49.42c.34,0,.65-.06.96-.15.29-.1.55-.25.78-.44s.42-.4.57-.67c.15-.25.25-.53.32-.82h.78c-.08.4-.19.77-.4,1.11-.21.34-.44.63-.73.9-.29.27-.63.46-1.01.59-.38.13-.8.21-1.26.21-.73,0-1.37-.19-1.93-.55-.55-.36-.99-.88-1.32-1.53s-.48-1.43-.48-2.35.15-1.68.48-2.35.77-1.17,1.32-1.53,1.2-.55,1.93-.55c.46,0,.88.08,1.26.21.38.13.73.34,1.01.59s.53.55.73.9.32.77.4,1.17"/><path d="m166.21,75.27c-.25-.5-.57-.9-.99-1.18s-.92-.42-1.47-.42-1.05.13-1.47.42-.77.67-.99,1.18c-.23.52-.36,1.09-.36,1.76s.12,1.24.36,1.74c.25.5.57.9.99,1.18s.92.42,1.47.42,1.05-.13,1.47-.42.77-.67.99-1.18c.25-.5.36-1.07.36-1.74s-.12-1.26-.36-1.76m-.63,3.08c-.15.4-.4.73-.71.96-.31.25-.69.36-1.15.36s-.82-.12-1.15-.36c-.31-.25-.55-.55-.71-.96-.15-.4-.25-.84-.25-1.32s.08-.94.25-1.34c.15-.4.4-.73.71-.97s.69-.36,1.15-.36.82.12,1.15.36c.31.25.55.57.71.97.17.4.25.84.25,1.34s-.1.92-.25,1.32"/><path d="m168.04,80.22v-6.46h.73v.99h.06c.13-.34.34-.59.65-.78s.67-.29,1.09-.29.8.1,1.11.31c.29.21.5.5.65.86h.06c.15-.36.38-.65.71-.86s.73-.32,1.2-.32c.59,0,1.07.19,1.42.57s.52.94.52,1.64v4.34h-.75v-4.34c0-.52-.13-.9-.38-1.15-.25-.25-.61-.38-1.03-.38-.5,0-.88.15-1.15.46-.27.31-.4.69-.4,1.15v4.26h-.77v-4.4c0-.44-.12-.78-.36-1.05s-.59-.4-1.03-.4c-.31,0-.57.08-.8.21-.23.13-.42.34-.55.61-.13.27-.21.55-.21.9v4.15l-.75-.02h0Z"/><path d="m183.16,75.25c-.23-.5-.53-.9-.94-1.17-.4-.29-.86-.42-1.4-.42-.4,0-.73.08-.97.21-.27.13-.48.31-.63.52-.15.21-.29.4-.36.59h-.1v-1.22h-.73v8.89h.75v-3.63h.08c.1.19.21.4.36.61.15.21.38.38.63.52s.59.21.97.21c.53,0,.99-.13,1.4-.42s.71-.67.94-1.17c.23-.5.34-1.09.34-1.76s-.13-1.26-.34-1.76m-.65,3.1c-.15.4-.38.73-.67.96-.31.23-.67.36-1.09.36s-.77-.12-1.07-.34c-.29-.23-.52-.53-.67-.96-.15-.4-.23-.86-.23-1.37s.08-.97.23-1.37c.15-.4.38-.71.67-.94s.65-.34,1.07-.34.8.12,1.09.34.52.55.67.96c.15.4.23.84.23,1.34s-.08.97-.23,1.37"/><path d="m189.35,74.75c-.15-.29-.32-.5-.55-.67-.23-.17-.48-.27-.75-.34-.27-.06-.53-.1-.77-.1-.32,0-.65.04-.97.13s-.61.25-.86.46c-.25.21-.46.5-.61.84l.71.25c.12-.29.32-.52.61-.73s.67-.31,1.15-.31.86.13,1.13.38.4.61.4,1.05v.15c0,.17-.08.29-.19.36-.13.08-.32.13-.57.15-.25.04-.55.08-.92.12-.36.04-.69.12-.99.19s-.57.19-.78.32c-.23.13-.4.32-.52.53-.12.23-.19.5-.19.8,0,.42.1.77.29,1.05.19.29.44.52.77.67.32.15.67.23,1.07.23.36,0,.67-.06.94-.17.27-.12.5-.27.67-.44s.31-.36.4-.55h.04v1.03h.75v-4.4c-.02-.38-.1-.75-.23-1.03m-.53,2.98c0,.36-.08.67-.23.97-.15.29-.38.53-.67.71s-.63.27-1.03.27-.78-.1-1.05-.32c-.29-.21-.42-.52-.42-.92,0-.27.08-.48.21-.65s.34-.31.59-.4c.25-.1.57-.17.94-.21.13-.02.29-.04.46-.06.17-.02.34-.06.5-.08.17-.04.32-.08.46-.12s.23-.1.29-.15v.96h-.04Z"/><path d="m192.12,76.19v4.03h-.75v-6.46h.73v1.01h.06c.15-.32.38-.59.71-.8.32-.19.73-.31,1.18-.31s.82.1,1.15.27c.32.19.59.44.77.8.17.36.27.78.27,1.3v4.19h-.75v-4.15c0-.53-.15-.96-.44-1.26s-.69-.46-1.18-.46c-.34,0-.63.08-.9.21-.27.13-.48.36-.63.63-.13.29-.21.61-.21.99"/><path d="m198.35,82.64c-.15,0-.29-.02-.42-.04s-.23-.06-.31-.1l.21-.67c.25.08.48.12.69.1.19-.02.38-.12.53-.27s.29-.4.42-.73l.23-.65-2.41-6.54h.8l1.91,5.46h.06l1.91-5.46h.8l-2.73,7.49c-.12.31-.25.57-.42.78-.17.21-.36.36-.57.46-.19.1-.44.15-.71.15"/></g><g><path d="m71.7,56.83c-12.57.12-22.86-9.97-22.98-22.54-.12-12.57,9.97-22.86,22.54-22.98h.44v45.52Z"/><path d="m90.44,63.15c0-9.38-5.75-17.8-14.49-21.21v42.41c8.74-3.41,14.49-11.82,14.49-21.2Z"/><path d="m75.98,30.06c8.22,0,14.88-6.66,14.89-14.88,0-8.22-6.66-14.88-14.88-14.89h0v29.76h0Z"/><path d="m61.15,82.09c0,7.27,4.06,13.94,10.53,17.26v-34.52c-6.46,3.32-10.53,9.98-10.53,17.25h0Z"/></g><g><path d="m148.19,50.49c0-8.06,5.23-13.33,13.14-13.33s13.19,5.27,13.19,13.33-5.23,13.28-13.19,13.28-13.14-5.27-13.14-13.28h0Zm22.56,0c0-6-3.71-9.91-9.43-9.91s-9.43,3.91-9.43,9.91,3.71,9.91,9.43,9.91,9.43-3.9,9.43-9.91Z"/><path d="m178.49,38.14h3.71v24.66h-3.71v-24.66Z"/><path d="m187.51,26.9h3.71v35.9h-3.71V26.9Z"/><path d="m223.42,50.49c0-7.72,5.27-13.33,12.5-13.33,3.85-.07,7.46,1.87,9.52,5.13h.05v-15.38h3.76v35.9h-3.66l.05-4.25h-.05c-2.07,3.3-5.72,5.28-9.62,5.22-7.23,0-12.55-5.62-12.55-13.28h0Zm22.22,0c0-5.62-3.91-9.91-9.23-9.91s-9.28,4.3-9.28,9.91,3.96,9.91,9.28,9.91,9.23-4.35,9.23-9.91Z"/><path d="m144.31,38.58h-4.78c-.28-1.26-.77-2.38-1.48-3.33-.7-.96-1.55-1.76-2.55-2.42-1-.66-2.1-1.15-3.31-1.48-1.21-.33-2.2-.5-3.51-.5-2.39,0-4.55.56-6.49,1.67-1.93,1.11-3.47,2.75-4.61,4.91-1.14,2.16-1.71,4.82-1.71,7.96s.57,5.8,1.71,7.96c1.14,2.16,2.67,3.8,4.61,4.91,1.93,1.11,4.1,1.67,6.49,1.67,1.31,0,2.57-.17,3.78-.5,1.21-.33,2.31-.82,3.31-1.48,1-.66,1.84-1.47,2.55-2.43.7-.96,1.19-2.07,1.48-3.32h4.78c-.36,1.86-1.02,3.52-1.97,4.98-.95,1.47-2.13,2.71-3.55,3.73-1.41,1.02-3,1.8-4.75,2.33s-3.63.8-5.62.8c-3.37,0-6.36-.76-8.99-2.27-2.62-1.51-4.69-3.66-6.19-6.45-1.5-2.79-2.26-6.1-2.26-9.93s.75-7.14,2.26-9.93c1.5-2.79,3.57-4.94,6.19-6.45,2.62-1.51,5.62-2.27,8.99-2.27,1.99,0,3.59.27,5.35.8,1.75.53,3.34,1.31,4.75,2.33,1.41,1.02,2.6,2.26,3.55,3.72.95,1.46,1.61,3.12,1.97,4.99Z"/><path d="m220.23,50.05c0-2.41-.35-4.44-1.04-6.09-.7-1.65-1.63-2.98-2.8-3.98s-2.47-1.73-3.9-2.18c-1.43-.45-2.87-.67-4.34-.67-2.54,0-4.75.57-6.65,1.71-1.9,1.14-3.37,2.72-4.43,4.75-1.06,2.02-1.58,4.36-1.58,7.01s.53,4.97,1.58,6.96c1.06,1.99,2.56,3.54,4.52,4.65,1.96,1.1,4.29,1.66,7,1.66,1.9,0,3.62-.27,5.14-.82,1.53-.54,2.81-1.31,3.84-2.29,1.04-.98,1.78-2.12,2.21-3.42l.27-1.09h-4.44c-.37.91-.89,1.66-1.55,2.26-.67.6-1.47,1.05-2.39,1.35-.92.3-1.95.45-3.08.45-1.75,0-3.28-.35-4.59-1.05-1.32-.7-2.35-1.73-3.09-3.08-.67-1.22-1.03-2.7-1.1-4.42h20.41v-1.68Zm-20.4-1.75c.08-1.2.41-2.33.99-3.4.67-1.25,1.63-2.26,2.88-3.04,1.25-.78,2.74-1.17,4.46-1.17,1.56,0,2.92.33,4.07.99,1.15.66,2.04,1.56,2.67,2.71.63,1.14.94,2.44.94,3.9h-16.01Z"/><path d="m178.08,30.38c0-1.31.88-2.18,2.24-2.18s2.28.87,2.28,2.18-.96,2.22-2.28,2.22-2.24-.87-2.24-2.22h0Z"/></g></svg>