<svg width="675" height="157" viewBox="0 0 675 157" fill="none" xmlns="http://www.w3.org/2000/svg">
<g clip-path="url(#clip0_1_8)">
<path fill-rule="evenodd" clip-rule="evenodd" d="M359.872 123.723C348.023 123.723 338.264 119.018 332.862 112.048V122.238C332.862 123.458 332.34 123.981 331.12 123.981H321.013C319.793 123.981 319.27 123.458 319.27 122.238V1.74258C319.27 0.522778 319.793 0 321.013 0H331.12C332.34 0 332.862 0.522778 332.862 1.74258V44.4359C338.787 37.814 348.894 32.7605 359.872 32.7605C382.526 32.7605 397.338 50.3606 397.338 78.242C397.338 106.123 382.526 123.723 359.872 123.723ZM357.084 110.828C373.639 110.828 383.049 96.5391 383.049 78.242C383.049 59.9448 373.639 45.6557 357.084 45.6557C340.53 45.6557 331.468 59.9448 331.468 78.242C331.468 96.5391 340.53 110.828 357.084 110.828ZM57.7426 156.484H67.8496C69.0694 156.484 69.5921 155.961 69.5921 154.741V112.048C75.5169 118.67 85.6239 123.723 96.6022 123.723C119.256 123.723 134.068 106.123 134.068 78.242C134.068 50.3606 119.256 32.7605 96.6022 32.7605C84.7526 32.7605 74.9941 37.4655 69.5921 44.4359V36.2457C69.5921 35.0259 69.0694 34.5031 67.8496 34.5031H57.7426C56.5228 34.5031 56 35.0259 56 36.2457V154.741C56 155.961 56.5228 156.484 57.7426 156.484ZM119.779 78.242C119.779 96.5391 110.369 110.828 93.814 110.828C77.2595 110.828 68.1981 96.5391 68.1981 78.242C68.1981 59.9448 77.2595 45.6557 93.814 45.6557C110.369 45.6557 119.779 59.9448 119.779 78.242ZM151.966 123.981H162.073C163.293 123.981 163.815 123.458 163.815 122.238V77.5449C163.815 60.8161 171.483 45.6557 184.726 45.6557C192.568 45.6557 196.75 47.7468 201.978 55.9369C202.501 56.8082 203.024 57.1567 203.546 57.1567C203.895 57.1567 204.243 57.1567 205.115 56.6339L213.479 51.0577C214.176 50.5349 214.525 50.1864 214.525 49.3151C214.525 48.9666 214.35 48.4438 214.176 48.0953C209.82 39.0339 201.804 32.7605 189.431 32.7605C178.105 32.7605 169.043 38.6853 163.815 45.8299V36.2457C163.815 35.0259 163.293 34.5031 162.073 34.5031H151.966C150.746 34.5031 150.223 35.0259 150.223 36.2457V122.238C150.223 123.458 150.746 123.981 151.966 123.981ZM408.614 96.0163C408.614 115.01 424.123 123.723 440.504 123.723C452.876 123.723 461.589 118.844 467.165 111.177V122.238C467.165 123.458 467.688 123.981 468.908 123.981H482.5C483.72 123.981 484.417 123.458 483.72 122.238C481.454 118.056 480.757 113.268 480.757 105.252V62.733C480.757 44.9586 466.119 32.7605 446.08 32.7605C426.737 32.7605 415.236 44.7844 411.925 57.6795C411.751 58.3765 411.751 59.0735 411.751 59.4221C411.751 60.1191 412.274 60.4676 412.971 60.4676H424.123C425.169 60.4676 426.04 60.2934 426.563 58.8993C429.874 50.5349 436.147 45.6557 446.08 45.6557C460.02 45.6557 467.165 52.8003 467.165 66.2181V70.5746C460.717 68.4835 452.179 66.9152 444.337 66.9152C424.646 66.9152 408.614 76.6736 408.614 96.0163ZM467.165 83.4697C467.165 101.07 454.967 110.828 441.898 110.828C429.7 110.828 422.903 104.903 422.903 96.0163C422.903 85.2123 432.488 79.8103 444.511 79.8103C453.05 79.8103 460.02 81.0301 467.165 83.4697ZM541.001 123.723C529.152 123.723 519.393 119.018 513.991 112.048V122.238C513.991 123.458 513.469 123.981 512.249 123.981H502.142C500.922 123.981 500.399 123.458 500.399 122.238V1.74258C500.399 0.522778 500.922 0 502.142 0H512.249C513.469 0 513.991 0.522778 513.991 1.74258V44.4359C519.916 37.814 530.023 32.7605 541.001 32.7605C563.655 32.7605 578.467 50.3606 578.467 78.242C578.467 106.123 563.655 123.723 541.001 123.723ZM538.213 110.828C554.768 110.828 564.178 96.5391 564.178 78.242C564.178 59.9448 554.768 45.6557 538.213 45.6557C521.659 45.6557 512.597 59.9448 512.597 78.242C512.597 96.5391 521.659 110.828 538.213 110.828ZM583.738 123.981H637.517C638.737 123.981 639.259 123.458 639.259 122.238V112.828C639.259 111.608 638.737 111.086 637.517 111.086H622.075V1.74258C622.075 0.522778 621.552 0 620.333 0H586.701C585.481 0 584.958 0.522778 584.958 1.74258V11.1525C584.958 12.3723 585.481 12.8951 586.701 12.8951H608.483V111.086H583.738C582.518 111.086 581.996 111.608 581.996 112.828V122.238C581.996 123.458 582.518 123.981 583.738 123.981ZM216.284 78.8539C216.284 108.304 237.892 124.51 261.417 124.51C285.116 124.51 306.724 108.304 306.724 78.8539C306.724 49.4043 285.116 33.1982 261.417 33.1982C237.892 33.1982 216.284 49.4043 216.284 78.8539ZM292.61 78.8539C292.61 98.3708 278.843 111.789 261.417 111.789C244.166 111.789 230.399 98.3708 230.399 78.8539C230.399 59.337 244.166 45.9191 261.417 45.9191C278.843 45.9191 292.61 59.337 292.61 78.8539Z" fill="#1E22AA"/>
<path fill-rule="evenodd" clip-rule="evenodd" d="M1.59664 50.4237H14.6891C15.8067 50.4237 16.2857 49.9407 16.2857 48.8136V35.6102C16.2857 34.4831 15.8067 34 14.6891 34H1.59664C0.478993 34 0 34.4831 0 35.6102V48.8136C0 49.9407 0.478993 50.4237 1.59664 50.4237ZM1.59664 125H14.6891C15.8067 125 16.2857 124.517 16.2857 123.39V110.186C16.2857 109.059 15.8067 108.576 14.6891 108.576H1.59664C0.478993 108.576 0 109.059 0 110.186V123.39C0 124.517 0.478993 125 1.59664 125ZM672.689 124H659.597C658.479 124 658 123.517 658 122.39V109.186C658 108.059 658.479 107.576 659.597 107.576H672.689C673.807 107.576 674.286 108.059 674.286 109.186V122.39C674.286 123.517 673.807 124 672.689 124Z" fill="#1E22AA"/>
</g>
<defs>
<clipPath id="clip0_1_8">
<rect width="675" height="157" fill="white"/>
</clipPath>
</defs>
</svg>
