<?xml version="1.0" encoding="utf-8"?>
<!-- Generator: Adobe Illustrator 28.0.0, SVG Export Plug-In . SVG Version: 6.00 Build 0)  -->
<svg version="1.1" id="Laag_1" xmlns="http://www.w3.org/2000/svg" xmlns:xlink="http://www.w3.org/1999/xlink" x="0px" y="0px"
	 viewBox="0 0 700.32 153.28" style="enable-background:new 0 0 700.32 153.28;" xml:space="preserve">
<style type="text/css">
	.st0{fill:#1A1717;}
	.st1{fill:#992451;}
	.st2{fill:#D43873;}
</style>
<g>
	<path class="st0" d="M162.74,48.88h20.87c11.45,0,17.83,6.62,17.83,15.19c0,6-3.35,10.82-9.03,11.76v1.56
		c3.66,1.01,8.57,4.67,8.57,12.62v13.39h-8.18V90.62c0-4.91-3.04-7.94-8.8-7.94h-13.24v20.71h-8.02V48.88L162.74,48.88z
		 M183.23,75.28c5.68,0,9.97-3.97,9.97-9.66c0-5.22-3.66-9.35-10.28-9.35h-12.15v19H183.23L183.23,75.28z"/>
	<path class="st0" d="M209.39,83.38c0-12.23,8.88-21.03,21.1-21.03c11.99,0,21.1,8.8,21.1,21.03c0,12.3-9.11,21.03-21.1,21.03
		C218.27,104.41,209.39,95.68,209.39,83.38L209.39,83.38z M230.49,97.32c7.55,0,13.16-5.53,13.16-13.94
		c0-8.18-5.61-13.94-13.16-13.94c-7.55,0-13.16,5.76-13.16,13.94C217.33,91.79,222.94,97.32,230.49,97.32L230.49,97.32z"/>
	<path class="st0" d="M257.59,92.26l7.09-1.87c1.09,4.9,5.22,7.24,10.12,7.24c5.92,0,8.96-2.41,8.96-5.53
		c0-2.65-1.79-4.28-5.68-5.14l-6.93-1.48c-5.76-1.25-11.06-4.2-11.06-11.45c0-6.46,5.76-11.68,15.26-11.68
		c8.18,0,14.33,4.44,15.89,11.53l-6.93,1.87c-0.7-4.05-4.21-6.77-8.96-6.77c-4.9,0-7.79,2.26-7.79,5.06c0,2.65,1.95,4.13,5.68,4.9
		l6.78,1.48c6.85,1.48,11.29,5.06,11.29,11.68c0,7.4-6.54,12.3-16.74,12.3C265.3,104.41,259.31,99.5,257.59,92.26L257.59,92.26z"/>
	<path class="st0" d="M298.24,83.15c0-12.54,8.8-20.79,20.01-20.79c12.15,0,19.31,9.27,18.92,19.86l-0.15,3.74h-31.07
		c0.93,7.09,5.3,11.6,12.46,11.6c4.91,0,8.88-2.26,11.21-5.92l5.76,3.74c-3.19,5.37-9.11,9.03-16.98,9.03
		C306.42,104.41,298.24,95.61,298.24,83.15L298.24,83.15z M329.63,79.41c-0.16-5.76-4.83-10.44-11.37-10.44
		c-6.7,0-10.9,4.28-12.15,10.44H329.63L329.63,79.41z"/>
	<path class="st0" d="M345.51,63.37h7.79v7.16h1.56c1.17-4.28,5.06-8.18,11.21-8.18c6.62,0,10.75,3.74,12.31,8.18h1.71
		c1.48-4.36,5.22-8.18,11.37-8.18c8.95,0,13.94,6.77,13.94,14.56v26.48h-7.79V79.18c0-5.76-3.5-9.42-8.96-9.42
		c-5.22,0-9.27,3.74-9.27,10.28v23.36h-7.79V79.1c0-5.69-3.89-9.34-9.11-9.34c-5.38,0-9.19,4.28-9.19,10.28v23.36h-7.79V63.37
		L345.51,63.37z"/>
	<path class="st0" d="M414.28,91.56c0-7.48,5.84-12.54,14.64-12.54h12.54v-1.09c0-4.91-3.5-8.8-9.42-8.8c-5.68,0-8.57,3.5-9.11,6.78
		l-6.93-1.95c1.71-7.09,7.71-11.6,16.04-11.6c11.29,0,17.05,7.55,17.05,15.58v17.21c0,1.4,0.78,1.87,2.02,1.87h1.24v6.39h-3.89
		c-4.13,0-6.23-2.49-6.23-5.84v-1.64h-1.56c-1.09,5.14-5.53,8.49-12.07,8.49C420.19,104.41,414.28,99.19,414.28,91.56L414.28,91.56z
		 M430.08,97.87c8.18,0,11.37-5.92,11.37-11.6v-1.09h-11.68c-4.91,0-7.63,2.49-7.63,6.23C422.14,95.45,425.72,97.87,430.08,97.87
		L430.08,97.87z"/>
	<path class="st0" d="M460.06,63.37h7.79v7.16h1.56c1.25-4.28,5.3-8.18,11.45-8.18c9.27,0,14.17,6.93,14.17,14.56v26.48h-7.79V79.18
		c0-5.53-4.13-9.42-9.35-9.42c-6,0-10.04,4.36-10.04,10.28v23.36h-7.79V63.37L460.06,63.37z"/>
	<polygon class="st0" points="521.6,48.88 529.7,48.88 529.7,95.92 554.7,95.92 554.7,103.39 521.6,103.39 521.6,48.88 	"/>
	<path class="st0" d="M559.37,91.56c0-7.48,5.84-12.54,14.64-12.54h12.54v-1.09c0-4.91-3.51-8.8-9.42-8.8
		c-5.68,0-8.57,3.5-9.11,6.78l-6.93-1.95c1.71-7.09,7.71-11.6,16.04-11.6c11.29,0,17.05,7.55,17.05,15.58v17.21
		c0,1.4,0.78,1.87,2.03,1.87h1.24v6.39h-3.89c-4.13,0-6.23-2.49-6.23-5.84v-1.64h-1.56c-1.09,5.14-5.53,8.49-12.07,8.49
		C565.29,104.41,559.37,99.19,559.37,91.56L559.37,91.56z M575.18,97.87c8.18,0,11.37-5.92,11.37-11.6v-1.09h-11.68
		c-4.91,0-7.63,2.49-7.63,6.23C567.24,95.45,570.82,97.87,575.18,97.87L575.18,97.87z"/>
	<path class="st0" d="M614.51,96.23h-1.64v7.16h-7.71V44.99h7.71v25.54h1.56c1.79-4.52,6.62-8.18,13.32-8.18
		c10.59,0,18.15,9.03,18.15,21.1c0,11.99-7.4,20.95-18.15,20.95C620.97,104.41,616.22,101.06,614.51,96.23L614.51,96.23z
		 M625.17,97.32c7.32,0,12.77-5.37,12.77-13.86c0-8.33-5.45-14.02-12.62-14.02c-6.93,0-12.77,5.14-12.77,14.02
		C612.56,91.25,617.7,97.32,625.17,97.32L625.17,97.32z"/>
	<path class="st0" d="M651.88,92.26l7.09-1.87c1.09,4.9,5.22,7.24,10.13,7.24c5.92,0,8.95-2.41,8.95-5.53
		c0-2.65-1.79-4.28-5.68-5.14l-6.93-1.48c-5.76-1.25-11.06-4.2-11.06-11.45c0-6.46,5.76-11.68,15.26-11.68
		c8.18,0,14.33,4.44,15.89,11.53l-6.93,1.87c-0.7-4.05-4.21-6.77-8.95-6.77c-4.91,0-7.79,2.26-7.79,5.06c0,2.65,1.95,4.13,5.68,4.9
		l6.78,1.48c6.85,1.48,11.29,5.06,11.29,11.68c0,7.4-6.54,12.3-16.74,12.3C659.59,104.41,653.6,99.5,651.88,92.26L651.88,92.26z"/>
	<g>
		<polygon class="st1" points="12.34,47.23 118.89,26.81 131.73,103.9 26.43,131.82 12.34,47.23 		"/>
		<polygon class="st2" points="73.4,35.65 120.49,49.02 114.34,136.54 69.64,120.27 73.4,35.65 		"/>
		<polygon class="st2" points="73.73,35.6 28.27,22.63 27.21,44.37 73.73,35.6 		"/>
	</g>
</g>
</svg>
