<svg width="184" height="34" viewBox="0 0 184 34" fill="none" xmlns="http://www.w3.org/2000/svg">
<g clip-path="url(#clip0_221_437)">
<path d="M46.481 20.8375L54.8522 14.0307V13.7609H46.6855V11.5555H58.924V13.1421L50.5528 19.9943V20.4703L58.924 20.2436V22.4491H46.481V20.8397V20.8375Z" fill="#222222"/>
<path d="M75.9128 17.6618H64.3762C64.5807 19.3165 65.6661 20.6606 69.0824 20.6606C72.0456 20.6606 73.0868 19.8016 73.268 18.8972H75.9151C75.7803 20.7944 73.856 22.6666 69.0824 22.6666C63.177 22.6666 61.4595 19.7993 61.4595 17.0884C61.4595 13.6045 64.1973 11.3333 68.9035 11.3333C73.6097 11.3333 75.9175 13.405 75.9175 16.7801V17.6618H75.9128ZM73.268 15.8984C73.268 14.4432 72.0688 13.3416 69.015 13.3416C66.2099 13.3416 64.8526 14.2686 64.4692 15.9664H73.2704V15.9006L73.268 15.8984Z" fill="#222222"/>
<path d="M79.2176 11.5532H82.1134L82.0692 14.7492H82.3458C83.1824 12.5233 84.7605 11.3311 88.379 11.3311C92.9481 11.3311 94.554 13.4708 94.554 16.1387V22.4445H91.6582V16.8889C91.6582 14.9487 90.6403 13.6476 87.2913 13.6476C84.5769 13.6476 82.111 14.9033 82.111 17.5508V22.4468H79.2153V11.5555L79.2176 11.5532Z" fill="#222222"/>
<path d="M97.7449 17C97.7449 13.9128 100.211 11.3333 105.119 11.3333C110.028 11.3333 111.952 13.3778 111.952 15.7374L109.305 15.9641C109.282 14.7288 108.173 13.5388 105.166 13.5388C102.158 13.5388 100.641 15.0597 100.641 17C100.641 18.8292 101.817 20.4612 105.052 20.4612C108.287 20.4612 109.328 19.3142 109.349 18.0789L111.996 18.3056C111.996 20.5768 110.165 22.6644 104.938 22.6644C99.7111 22.6644 97.7449 19.754 97.7449 16.9977V17Z" fill="#222222"/>
<path d="M115.075 17.0226C115.075 14.1553 117.246 11.3333 122.745 11.3333C128.243 11.3333 130.414 14.1553 130.414 17.0226C130.414 19.89 128.288 22.6666 122.745 22.6666C117.202 22.6666 115.075 19.9104 115.075 17.0226ZM127.516 17.0226C127.516 15.2138 126.226 13.5388 122.742 13.5388C119.259 13.5388 117.969 15.2138 117.969 17.0226C117.969 18.8314 119.235 20.4612 122.742 20.4612C126.249 20.4612 127.516 18.8292 127.516 17.0226Z" fill="#222222"/>
<path d="M133.491 16.8685C133.491 13.804 136.048 11.3333 140.684 11.3333C143.829 11.3333 145.316 12.1924 145.904 13.6929H146.16V8.43201H149.055V22.4468H146.16C146.204 21.6535 146.25 20.5496 146.273 19.6475H145.997C145.453 21.4336 143.945 22.6689 140.596 22.6689C136.071 22.6689 133.493 20.3751 133.493 16.8708L133.491 16.8685ZM146.16 17V16.6691C146.16 14.9487 144.53 13.5388 141.093 13.5388C137.949 13.5388 136.366 14.9713 136.366 16.8685C136.366 19.074 138.107 20.4635 141.072 20.4635C144.465 20.4635 146.162 18.4779 146.162 17.0023L146.16 17Z" fill="#222222"/>
<path d="M166.881 17.6618H155.344C155.549 19.3165 156.634 20.6606 160.05 20.6606C163.014 20.6606 164.055 19.8016 164.236 18.8972H166.883C166.748 20.7944 164.824 22.6666 160.05 22.6666C154.145 22.6666 152.428 19.7993 152.428 17.0884C152.428 13.6045 155.165 11.3333 159.871 11.3333C164.578 11.3333 166.885 13.405 166.885 16.7801V17.6618H166.881ZM164.234 15.8984C164.234 14.4432 163.034 13.3416 159.981 13.3416C157.176 13.3416 155.818 14.2686 155.435 15.9664H164.236V15.9006L164.234 15.8984Z" fill="#222222"/>
<path d="M170.186 11.5532H173.081L173.037 14.8829H173.314C174.016 12.92 175.366 11.3333 178.51 11.3333C182.199 11.3333 183.6 13.3166 183.6 16.3608C183.6 17.1994 183.556 17.9474 183.533 18.301H180.818C180.841 18.0358 180.862 17.5734 180.862 17.1768C180.862 14.8398 180.07 13.6498 177.674 13.6498C174.711 13.6498 173.081 15.8984 173.081 18.3237V22.4468H170.186V11.5554V11.5532Z" fill="#222222"/>
<path d="M14.5602 23.3988C14.1163 21.9391 13.3656 20.2005 11.8294 19.5613C10.2746 18.9697 8.50136 19.6747 7.22778 20.57C6.2726 21.2545 5.44059 22.1657 4.99902 23.2583C4.85028 23.63 4.7457 24.0176 4.69457 24.412C4.63414 24.8064 4.57837 25.2031 4.58534 25.602C4.63182 28.1951 6.06576 30.6884 8.03888 32.3748C9.11259 33.2679 10.5047 34.0929 11.9828 33.9887C14.3394 33.7529 14.7926 30.9173 15.0459 29.0745C15.1528 28.3129 15.1598 27.5445 15.1226 26.7784C15.0622 25.6337 14.8832 24.5027 14.5602 23.3965V23.3988Z" fill="#F24A07"/>
<path d="M28.2512 23.9994C27.54 23.664 26.794 23.4192 26.0363 23.2197C24.9022 22.9228 23.7425 22.7369 22.5642 22.6961C21.0024 22.6553 19.0758 22.814 17.9788 24.0425C16.9214 25.3028 17.0608 27.166 17.5419 28.6234C17.9138 29.7205 18.5459 30.7722 19.4755 31.5225C19.7916 31.7741 20.1379 31.9917 20.5074 32.1617C20.8723 32.3385 21.2418 32.513 21.6346 32.6309C24.1771 33.3902 27.0519 32.8304 29.3063 31.5202C30.5078 30.8017 31.7442 29.7636 32.0975 28.3605C32.5971 26.1006 29.9709 24.8064 28.2512 23.9994Z" fill="#F24A07"/>
<path d="M35.0397 11.5283C34.7097 10.1909 34.0799 8.72441 32.8226 7.96281C30.7751 6.80228 28.6997 8.83774 27.382 10.1819C26.8358 10.7372 26.3664 11.3537 25.9364 11.9952C25.2973 12.9563 24.7581 13.974 24.3537 15.0529C23.8331 16.49 23.3916 18.326 24.2515 19.7223C25.1532 21.0913 27.0124 21.5401 28.5812 21.5424C29.7664 21.5379 30.9889 21.2749 32.0045 20.6448C32.3485 20.4295 32.6669 20.1756 32.9457 19.8855C33.2316 19.6021 33.5151 19.312 33.7522 18.9856C35.2791 16.8617 35.6207 14.0216 35.0397 11.526V11.5283Z" fill="#F24A07"/>
<path d="M21.9762 12.5709C23.5914 12.1584 24.6001 10.5717 25.0904 9.11655C25.4507 8.01495 25.5738 6.80228 25.274 5.66215C25.1695 5.27681 25.0207 4.90281 24.8255 4.55375C24.6372 4.20241 24.4444 3.84881 24.1957 3.52921C22.5944 1.45748 19.931 0.265214 17.3188 0.0317471C15.9128 -0.0747862 14.2883 0.0544138 13.1564 0.98828C11.3902 2.52961 12.7335 5.08415 13.6398 6.72068C14.0117 7.39841 14.4695 8.02401 14.9622 8.62015C15.7013 9.51095 16.5263 10.3247 17.4559 11.0341C18.6947 11.9612 20.3494 12.9381 21.9785 12.5732L21.9762 12.5709Z" fill="#F24A07"/>
<path d="M8.27827 17.757C9.37523 17.3468 10.4234 16.8322 11.4018 16.1908C12.6893 15.3272 14.1512 14.0941 14.2999 12.4712C14.3952 10.846 13.1611 9.41797 11.8945 8.51583C10.9323 7.84037 9.78658 7.35303 8.58273 7.27823C8.17602 7.25557 7.76466 7.27823 7.36492 7.35303C6.96286 7.41877 6.55848 7.48903 6.17036 7.61823C3.65574 8.46143 1.66867 10.5626 0.634472 12.9154C0.0952922 14.187 -0.27888 15.7352 0.278892 17.0725C1.2364 19.1873 4.14146 18.7294 6.01697 18.3962C6.79321 18.2602 7.54387 18.029 8.27827 17.757Z" fill="#F24A07"/>
</g>
<defs>
<clipPath id="clip0_221_437">
<rect width="184" height="34" fill="white"/>
</clipPath>
</defs>
</svg>
