<?xml version="1.0" encoding="UTF-8" standalone="no"?>
<svg
	xmlns:dc="http://purl.org/dc/elements/1.1/"
	xmlns:cc="http://creativecommons.org/ns#"
	xmlns:rdf="http://www.w3.org/1999/02/22-rdf-syntax-ns#"
	xmlns:svg="http://www.w3.org/2000/svg"
	xmlns="http://www.w3.org/2000/svg"
	viewBox="50 50 376.28 131.45332"
	height="131.45332"
	width="376.28"
	xml:space="preserve"
	id="svg2"
	version="1.1">
	<metadata id="metadata8">
		<rdf:RDF>
			<cc:Work
				rdf:about="">
				<dc:format>image/svg+xml</dc:format>
				<dc:type
					rdf:resource="http://purl.org/dc/dcmitype/StillImage" />
			</cc:Work>
		</rdf:RDF>
	</metadata>
	<defs
		id="defs6" />
	<g
		transform="matrix(1.3333333,0,0,-1.3333333,0,231.45333)"
		id="g10">
		<g
			transform="scale(0.1)"
			id="g12">
			<path
				id="path14"
				style="fill:#40beaa;fill-opacity:1;fill-rule:nonzero;stroke:none"
				d="m 954.629,1225.94 c -12.582,0 -23.336,4.43 -32.223,13.33 -8.902,8.91 -13.355,19.66 -13.355,32.24 0,12.38 4.453,23.01 13.355,31.91 8.887,8.89 19.641,13.34 32.223,13.34 12.379,0 23.012,-4.45 31.914,-13.34 9.121,-8.68 13.667,-19.33 13.667,-31.91 0,-12.8 -4.546,-23.55 -13.667,-32.24 -8.902,-8.9 -19.535,-13.33 -31.914,-13.33" />
			<path
				id="path16"
				style="fill:#40beaa;fill-opacity:1;fill-rule:nonzero;stroke:none"
				d="m 1625.97,620.871 c 7.64,3.738 16.27,6.359 25.88,7.859 10.71,1.661 20.46,-6.57 20.46,-17.398 v 0 c 0,-9.082 -6.9,-16.531 -15.92,-17.48 -11.79,-1.243 -27.86,-5.34 -40.35,-17.571 -11.94,-11.691 -17.33,-29.269 -17.33,-51.59 V 438.25 c 0,-10.328 -8.37,-18.699 -18.69,-18.699 v 0 c -10.32,0 -18.69,8.371 -18.69,18.699 v 172.102 c 0,9.898 8.02,17.91 17.91,17.91 v 0 c 9.89,0 17.91,-8.012 17.91,-17.91 v -16.743 c 6.49,11.942 16.1,21.032 28.82,27.262" />
			<path
				id="path18"
				style="fill:#40beaa;fill-opacity:1;fill-rule:nonzero;stroke:none"
				d="m 1758.56,582.32 c -12.08,-10.898 -19.15,-25.191 -21.23,-42.832 h 132.4 c -2.08,17.391 -9.15,31.614 -21.22,42.633 -12.07,11.039 -27.06,16.551 -44.98,16.551 -17.92,0 -32.91,-5.442 -44.97,-16.352 z m 146.22,-69.699 h -167.45 c 2.34,-18.172 10.33,-32.769 23.95,-43.812 13.63,-11.028 30.57,-16.547 50.82,-16.547 18.76,0 34.74,4.808 47.94,14.418 7.06,5.14 16.73,4.55 22.4,-2.09 v 0 c 5.76,-6.75 5.26,-17.16 -1.63,-22.738 -6.89,-5.602 -14.68,-10.172 -23.35,-13.731 -13.89,-5.711 -29.39,-8.57 -46.53,-8.57 -21.81,0 -41.15,4.48 -58.03,13.437 -16.87,8.961 -29.92,21.481 -39.13,37.571 -9.21,16.089 -13.81,34.273 -13.81,54.523 0,19.988 4.47,38.027 13.43,54.129 8.95,16.09 21.28,28.621 36.99,37.57 15.7,8.957 33.42,13.438 53.15,13.438 19.73,0 37.32,-4.481 52.77,-13.438 15.44,-8.949 27.51,-21.48 36.21,-37.57 8.69,-16.102 13.05,-34.539 13.05,-55.301 0,-2.859 -0.27,-6.621 -0.78,-11.289" />
			<path
				id="path20"
				style="fill:#40beaa;fill-opacity:1;fill-rule:nonzero;stroke:none"
				d="m 2102.01,461.41 c 10.51,6.102 18.82,14.672 24.92,25.699 6.1,11.039 9.15,23.692 9.15,37.973 0,14.27 -3.05,26.93 -9.15,37.969 -6.1,11.031 -14.41,19.531 -24.92,25.5 -10.52,5.969 -22.39,8.961 -35.63,8.961 -12.98,0 -24.73,-3.051 -35.25,-9.153 -10.51,-6.097 -18.82,-14.609 -24.91,-25.507 -6.1,-10.903 -9.15,-23.5 -9.15,-37.77 0,-14.281 2.97,-26.934 8.95,-37.973 5.97,-11.027 14.27,-19.597 24.92,-25.699 10.64,-6.09 22.46,-9.148 35.44,-9.148 13.24,0 25.11,3.058 35.63,9.148 z m 21.21,155.57 c 15.84,-8.832 28.24,-21.171 37.2,-37 8.95,-15.839 13.43,-34.14 13.43,-54.898 0,-20.773 -4.48,-39.133 -13.43,-55.102 -8.96,-15.96 -21.36,-28.371 -37.2,-37.179 -15.83,-8.84 -33.74,-13.25 -53.73,-13.25 -14.79,0 -28.36,2.859 -40.69,8.57 -12.34,5.699 -22.78,14.02 -31.35,24.918 v -88.008 c 0,-10.32 -8.37,-18.691 -18.69,-18.691 v 0 c -10.32,0 -18.69,8.371 -18.69,18.691 v 245.321 c 0,9.898 8.03,17.91 17.92,17.91 v 0 c 9.89,0 17.91,-8.012 17.91,-17.91 v -14.793 c 8.3,11.421 18.82,20.062 31.54,25.902 12.72,5.84 26.73,8.758 42.05,8.758 19.99,0 37.9,-4.43 53.73,-13.239" />
			<path
				id="path22"
				style="fill:#40beaa;fill-opacity:1;fill-rule:nonzero;stroke:none"
				d="M 2420.72,609.57 V 439.602 c 0,-9.782 -7.93,-17.711 -17.71,-17.711 v 0 c -9.79,0 -17.72,7.929 -17.72,17.711 v 13.437 c -7.54,-10.641 -17.47,-18.891 -29.79,-24.73 -12.34,-5.84 -25.76,-8.758 -40.3,-8.758 -27.52,0 -49.2,7.597 -65.03,22.789 -15.84,15.18 -23.75,37.57 -23.75,67.172 V 609.57 c 0,10.34 8.36,18.692 18.69,18.692 v 0 c 10.32,0 18.69,-8.352 18.69,-18.692 v -95.789 c 0,-19.992 4.79,-35.109 14.4,-45.359 9.6,-10.25 23.37,-15.383 41.27,-15.383 19.73,0 35.31,5.973 46.74,17.922 11.42,11.93 17.13,28.809 17.13,50.621 v 87.988 c 0,10.34 8.37,18.692 18.69,18.692 v 0 c 10.32,0 18.69,-8.352 18.69,-18.692" />
			<path
				id="path24"
				style="fill:#40beaa;fill-opacity:1;fill-rule:nonzero;stroke:none"
				d="m 2636.64,461.41 c 10.51,6.102 18.82,14.672 24.92,25.699 6.1,11.039 9.15,23.692 9.15,37.973 0,14.27 -3.05,26.93 -9.15,37.969 -6.1,11.031 -14.41,19.531 -24.92,25.5 -10.52,5.969 -22.39,8.961 -35.63,8.961 -12.98,0 -24.8,-2.992 -35.43,-8.961 -10.66,-5.969 -18.96,-14.469 -24.93,-25.5 -5.97,-11.039 -8.95,-23.699 -8.95,-37.969 0,-14.281 2.98,-26.934 8.95,-37.973 5.97,-11.027 14.27,-19.597 24.93,-25.699 10.63,-6.09 22.45,-9.148 35.43,-9.148 13.24,0 25.11,3.058 35.63,9.148 z m 21.22,155.57 c 15.83,-8.832 28.23,-21.171 37.19,-37 8.95,-15.839 13.44,-34.14 13.44,-54.898 0,-20.773 -4.49,-39.133 -13.44,-55.102 -8.96,-15.96 -21.36,-28.371 -37.19,-37.179 -15.84,-8.84 -33.75,-13.25 -53.74,-13.25 -15.31,0 -29.34,2.98 -42.05,8.961 -12.72,5.968 -23.23,14.668 -31.54,26.09 v -14.801 c 0,-9.891 -8.02,-17.91 -17.91,-17.91 v 0 c -9.9,0 -17.91,8.019 -17.91,17.91 v 252.328 c 0,10.32 8.37,18.691 18.69,18.691 v 0 c 10.32,0 18.69,-8.371 18.69,-18.691 v -95.02 c 8.3,10.911 18.69,19.153 31.15,24.743 12.45,5.57 26.09,8.367 40.88,8.367 19.99,0 37.9,-4.43 53.74,-13.239" />
			<path
				id="path26"
				style="fill:#40beaa;fill-opacity:1;fill-rule:nonzero;stroke:none"
				d="m 2781.69,710.82 v 0 c 10.32,0 18.69,-8.371 18.69,-18.691 V 438.25 c 0,-10.328 -8.37,-18.699 -18.69,-18.699 v 0 c -10.32,0 -18.69,8.371 -18.69,18.699 v 253.879 c 0,10.32 8.37,18.691 18.69,18.691" />
			<path
				id="path28"
				style="fill:#40beaa;fill-opacity:1;fill-rule:nonzero;stroke:none"
				d="m 2893.06,628.262 v 0 c 10.32,0 18.69,-8.352 18.69,-18.68 V 438.25 c 0,-10.328 -8.37,-18.699 -18.69,-18.699 v 0 c -10.33,0 -18.7,8.371 -18.7,18.699 v 171.332 c 0,10.328 8.37,18.68 18.7,18.68 z m -14.33,45.269 c -3.8,3.699 -5.69,8.207 -5.69,13.551 0,5.34 1.89,9.906 5.69,13.699 3.8,3.801 8.57,5.707 14.33,5.707 5.74,0 10.51,-1.797 14.31,-5.386 3.8,-3.602 5.71,-8.063 5.71,-13.403 0,-5.551 -1.91,-10.219 -5.71,-14.019 -3.8,-3.789 -8.57,-5.692 -14.31,-5.692 -5.76,0 -10.53,1.852 -14.33,5.543" />
			<path
				id="path30"
				style="fill:#40beaa;fill-opacity:1;fill-rule:nonzero;stroke:none"
				d="m 3019.41,433.191 c -16.49,9.071 -29.4,21.61 -38.75,37.571 -9.34,15.957 -14.01,34.07 -14.01,54.32 0,20.25 4.67,38.348 14.01,54.316 9.35,15.961 22.26,28.434 38.75,37.383 16.48,8.957 35.24,13.438 56.26,13.438 18.69,0 35.37,-3.77 50.04,-11.297 8.85,-4.543 16.51,-10.313 22.94,-17.332 6.79,-7.36 5.37,-19.09 -3.04,-24.508 l -2.13,-1.363 c -6.64,-4.278 -15.12,-2.797 -20.66,2.851 -4.64,4.731 -9.84,8.578 -15.6,11.539 -9.61,4.93 -20.26,7.403 -31.94,7.403 -13.49,0 -25.63,-2.992 -36.4,-8.961 -10.77,-5.969 -19.21,-14.469 -25.32,-25.5 -6.09,-11.039 -9.15,-23.699 -9.15,-37.969 0,-14.543 3.06,-27.32 9.15,-38.363 6.11,-11.028 14.55,-19.528 25.32,-25.508 10.77,-5.961 22.91,-8.949 36.4,-8.949 11.68,0 22.33,2.468 31.94,7.398 5.8,2.981 11.03,6.86 15.7,11.641 5.48,5.621 13.89,7.121 20.53,2.937 l 1.93,-1.218 c 8.52,-5.36 10.01,-17.161 3.2,-24.571 -6.42,-7 -14.05,-12.801 -22.87,-17.41 -14.67,-7.66 -31.35,-11.488 -50.04,-11.488 -21.02,0 -39.78,4.539 -56.26,13.64" />
			<path
				id="path32"
				style="fill:#172744;fill-opacity:1;fill-rule:nonzero;stroke:none"
				d="m 628.754,841.508 c -65.938,0 -119.582,53.644 -119.582,119.59 0,65.942 53.644,119.582 119.582,119.582 65.937,0 119.586,-53.64 119.586,-119.582 0,-65.946 -53.649,-119.59 -119.586,-119.59 z m 209.586,119.59 c 0,115.562 -94.02,209.582 -209.586,209.582 -44.449,0 -85.633,-14.01 -119.582,-37.7 v 138.71 c 0,24.86 -20.149,45 -45,45 -24.856,0 -45,-20.14 -45,-45 V 961.098 c 0,-115.567 94.016,-209.59 209.582,-209.59 115.566,0 209.586,94.023 209.586,209.59" />
			<path
				id="path34"
				style="fill:#172744;fill-opacity:1;fill-rule:nonzero;stroke:none"
				d="m 1280.52,841.508 c -65.95,0 -119.59,53.644 -119.59,119.59 0,65.942 53.64,119.582 119.59,119.582 65.93,0 119.58,-53.64 119.58,-119.582 0,-65.946 -53.65,-119.59 -119.58,-119.59 z m 0,329.172 c -115.57,0 -209.59,-94.02 -209.59,-209.582 0,-115.567 94.02,-209.59 209.59,-209.59 44.44,0 85.61,14.004 119.56,37.683 -0.47,-154.472 -126.27,-280.019 -280.86,-280.019 -121.782,0 -229.075,77.687 -266.974,193.308 -7.742,23.629 -33.168,36.497 -56.781,28.75 -23.613,-7.742 -36.485,-33.16 -28.746,-56.769 50.054,-152.699 191.715,-255.289 352.501,-255.289 204.51,0 370.88,166.379 370.88,370.879 0,0 -0.09,172.687 -0.1,173.027 -1.08,114.652 -94.59,207.602 -209.48,207.602" />
			<path
				id="path36"
				style="fill:#172744;fill-opacity:1;fill-rule:nonzero;stroke:none"
				d="m 2261.45,841.508 c -65.93,0 -119.59,53.644 -119.59,119.59 0,65.942 53.66,119.582 119.59,119.582 65.94,0 119.58,-53.64 119.58,-119.582 0,-65.946 -53.64,-119.59 -119.58,-119.59 z m 0,329.172 c -115.56,0 -209.59,-94.02 -209.59,-209.582 0,-115.567 94.03,-209.59 209.59,-209.59 44.75,0 86.19,14.219 120.27,38.211 3.29,-21.602 21.79,-38.211 44.31,-38.211 24.86,0 45,20.144 45,45 v 164.59 c 0,115.562 -94.02,209.582 -209.58,209.582" />
			<path
				id="path38"
				style="fill:#172744;fill-opacity:1;fill-rule:nonzero;stroke:none"
				d="m 2943.2,841.508 c -65.93,0 -119.58,53.644 -119.58,119.59 0,65.942 53.65,119.582 119.58,119.582 65.94,0 119.59,-53.64 119.59,-119.582 0,-65.946 -53.65,-119.59 -119.59,-119.59 z m 0,329.172 c -115.56,0 -209.58,-94.02 -209.58,-209.582 0,-115.567 94.02,-209.59 209.58,-209.59 44.76,0 86.19,14.219 120.28,38.211 3.29,-21.602 21.78,-38.211 44.31,-38.211 24.86,0 45,20.144 45,45 v 164.59 c 0,115.562 -94.02,209.582 -209.59,209.582" />
			<path
				id="path40"
				style="fill:#172744;fill-opacity:1;fill-rule:nonzero;stroke:none"
				d="m 2681.44,840.324 c -27.08,0 -49.11,22.031 -49.11,49.11 v 191.246 h 46.13 c 24.85,0 45,20.15 45,45 0,24.86 -20.15,45 -45,45 h -46.13 v 101.01 c 0,24.86 -20.14,45 -45,45 -24.85,0 -45,-20.14 -45,-45 V 889.434 c 0,-76.707 62.41,-139.11 139.11,-139.11 24.85,0 45,20.149 45,45 0,24.856 -20.15,45 -45,45" />
			<path
				id="path42"
				style="fill:#172744;fill-opacity:1;fill-rule:nonzero;stroke:none"
				d="m 1770.98,841.508 c -65.94,0 -119.58,53.644 -119.58,119.59 0,65.942 53.64,119.582 119.58,119.582 65.94,0 119.59,-53.64 119.59,-119.582 0,-65.946 -53.65,-119.59 -119.59,-119.59 z m 164.59,475.182 c -24.86,0 -45,-20.14 -45,-45 v -138.71 c -33.96,23.69 -75.14,37.7 -119.59,37.7 -115.57,0 -209.58,-94.02 -209.58,-209.582 0,-115.567 94.01,-209.59 209.58,-209.59 115.57,0 209.59,94.023 209.59,209.59 v 310.592 c 0,24.86 -20.15,45 -45,45" />
			<path
				id="path44"
				style="fill:#172744;fill-opacity:1;fill-rule:nonzero;stroke:none"
				d="m 1119.22,580.672 c 38.98,0 77.03,10.777 110.06,31.187 21.14,13.063 27.69,40.789 14.63,61.93 -13.07,21.152 -40.79,27.691 -61.94,14.633 -18.8,-11.613 -40.5,-17.75 -62.75,-17.75 -65.94,0 -119.587,53.637 -119.587,119.574 l 0.015,335.434 c 0,24.86 -20.144,45 -45,45 -24.851,0 -45,-20.14 -45,-45 l -0.015,-335.434 c 0,-115.566 94.017,-209.574 209.587,-209.574" />
		</g>
	</g>
</svg>
